<svg width="43" height="37" viewBox="0 0 43 37" fill="none" xmlns="http://www.w3.org/2000/svg">
<path d="M18.447 10.5176C18.0821 12.1509 17.736 15.2764 17.736 16.9376C17.736 18.5987 17.8275 21.7778 18.447 23.3576M18.447 10.5176L25.2976 5.56556C29.3298 2.65091 31.3458 1.19359 33.0143 1.62456C33.5363 1.75939 34.0221 2.00768 34.4372 2.35173C35.7639 3.45143 35.7639 5.93906 35.7639 10.9143V22.8688C35.7639 27.7775 35.7639 30.2318 34.4503 31.331C34.0393 31.675 33.5571 31.925 33.0391 32.0626C31.3839 32.5026 29.3786 31.0885 25.3681 28.2602C21.7884 25.7358 18.6205 23.4969 18.447 23.3576M18.447 10.5176C17.4557 10.4604 12.5881 10.4659 8.39682 10.4826C5.78228 10.493 4.47502 10.4982 3.5396 11.1462C3.17452 11.3991 2.85665 11.7183 2.6052 12.0844C1.96094 13.0223 1.96094 14.3333 1.96094 16.9551V16.9551C1.96094 19.5872 1.96094 20.9032 2.60846 21.8428C2.86118 22.2095 3.18046 22.5287 3.54719 22.7814C4.48682 23.4288 5.79937 23.4287 8.42447 23.4284C12.6095 23.428 17.4579 23.4146 18.447 23.3576M6.46865 23.4203L6.42271 32.2393C6.41311 34.0827 7.90524 35.582 9.74868 35.5812V35.5812C11.5842 35.5804 13.0718 34.0921 13.0718 32.2566V23.4212M40.2708 9.46567C42.5243 15.0696 42.5243 18.8055 40.2708 24.4095" stroke="#AE8F33" style="stroke:#AE8F33;stroke:color(display-p3 0.6824 0.5608 0.2000);stroke-opacity:1;" stroke-width="2" stroke-linecap="round" stroke-linejoin="round"/>
</svg>
