<svg width="24" height="24" viewBox="0 0 24 24" fill="none" xmlns="http://www.w3.org/2000/svg">
<g opacity="0.9">
<path d="M7.92098 21.0001C16.2208 21.0001 20.7617 14.0742 20.7617 8.06996C20.7617 7.87527 20.7575 7.67623 20.7488 7.48153C21.6322 6.83825 22.3946 6.04148 23 5.12863C22.1773 5.49719 21.3038 5.73791 20.4094 5.84255C21.3512 5.27411 22.0563 4.38112 22.3941 3.32912C21.5081 3.85784 20.5392 4.23079 19.529 4.43202C18.8483 3.7037 17.9482 3.22145 16.968 3.05985C15.9879 2.89827 14.982 3.06632 14.1063 3.53804C13.2304 4.00975 12.5333 4.75886 12.1227 5.66954C11.7121 6.58023 11.6108 7.60175 11.8346 8.5762C10.0406 8.48555 8.28561 8.01629 6.68332 7.19883C5.08103 6.38138 3.66722 5.23399 2.53356 3.83103C1.95737 4.83136 1.78106 6.01507 2.04044 7.1416C2.29983 8.26813 2.97547 9.25292 3.93003 9.89586C3.21341 9.87296 2.51247 9.67867 1.88516 9.32905V9.38531C1.88452 10.4351 2.24492 11.4527 2.90511 12.2651C3.56532 13.0776 4.48455 13.6347 5.50657 13.8419C4.84271 14.0248 4.14599 14.0514 3.47028 13.9198C3.75867 14.8226 4.31977 15.6121 5.07529 16.1784C5.8308 16.7446 6.74303 17.0593 7.68464 17.0784C6.08606 18.3427 4.11133 19.0286 2.07851 19.0253C1.71801 19.0247 1.35787 19.0026 1 18.9587C3.06513 20.2928 5.46741 21.0014 7.92098 21.0001Z" fill="#05032B" style="fill:#05032B;fill:color(display-p3 0.0196 0.0118 0.1686);fill-opacity:1;"/>
</g>
</svg>
